<svg xmlns="http://www.w3.org/2000/svg" viewBox="0 0 464.99 138"><defs>
    <style>.cls-1{fill:#333533;}</style></defs><g id="Layer_2" ><g id="Layer_2-2" ><polygon class="cls-1" points="84.5 119.5 124.5 94.5 125.5 75.5 83.5 99.5 58.5 85.5 58.5 54.5 84.5 38.5 99.5 49.5 76.5 64.5 76.5 74.5 84.5 79.5 135.5 48.5 153 59 143.26 64.22 143.26 105 86.51 138 81.89 138 24.5 104.5 24.5 64.5 0 49.36 84 0 168 49.87 155 58 88.5 18.5 35.5 49.5 42.5 54.5 43.5 95.5 84.5 119.5"/></g><g id="Layer_3" ><path class="cls-1" d="M440.84,55.74h20.3s3-20.13-18.18-23.31a60.65,60.65,0,0,0-20.14,1.06c-6.24,1.39-16.95,8.47-16.95,21.19,0,5.3,1.05,11.66,9.53,17,6.85,4.28,23.32,5.3,25.44,9.54,1.22,2.44,0,8.47-8.48,7.41C428,88.05,426,85.41,426,81.18H404.81s-2.12,15.89,16.95,23.31c6,2.32,17,2.32,23.32,1.06,10.59-2.12,23.31-11.66,19.07-29.57-1.26-5.33-5.3-9.64-16.95-13.88s-20.9-3.33-19.08-10.6C429.18,47.26,441.9,46.2,440.84,55.74Z"/><polygon class="cls-1" points="399.04 103.5 389.07 33.5 369.53 33.5 353.5 69.5 337.62 33.5 318.68 33.5 307.71 103.5 328.85 103.5 333.5 66.5 350.38 103.5 356.96 103.5 374.5 65.5 380.1 103.5 399.04 103.5"/><polygon class="cls-1" points="258.5 34.5 258.5 103.5 301.53 103.5 301.53 85.5 278.5 85.5 278.5 34.5 258.5 34.5"/><polygon class="cls-1" points="201.23 34.5 201.23 103.5 245.5 103.5 245.5 85.96 219.5 85.96 219.5 76.5 242.5 76.5 242.5 60.5 219.5 60.5 219.5 52.5 245.5 52.5 245.5 34.5 201.23 34.5"/></g></g></svg>