<?xml version="1.0" encoding="utf-8"?>
<!-- Generator: Adobe Illustrator 25.0.0, SVG Export Plug-In . SVG Version: 6.00 Build 0)  -->
<svg version="1.1" id="Layer_1" xmlns="http://www.w3.org/2000/svg" xmlns:xlink="http://www.w3.org/1999/xlink" x="0px" y="0px"
	 viewBox="0 0 263.8 239.9" style="enable-background:new 0 0 263.8 239.9;" xml:space="preserve">
<style type="text/css">
	.st0{fill:#333533;}
</style>
<g id="Layer_2_1_">
	<g id="Layer_2-2">
		<polygon class="st0" points="132.4,119.5 172.4,94.5 173.4,75.5 131.4,99.5 106.4,85.5 106.4,54.5 132.4,38.5 147.4,49.5 
			124.4,64.5 124.4,74.5 132.4,79.5 183.4,48.5 200.9,59 191.1,64.2 191.1,105 134.4,138 129.8,138 72.4,104.5 72.4,64.5 47.9,49.4 
			131.9,0 215.9,49.9 202.9,58 136.4,18.5 83.4,49.5 90.4,54.5 91.4,95.5 		"/>
	</g>
	<g id="Layer_3">
		<path class="st0" d="M239.6,189.2h20.3c0,0,3-20.1-18.2-23.3c-6.7-0.8-13.5-0.4-20.1,1.1c-6.2,1.4-17,8.5-17,21.2
			c0,5.3,1,11.7,9.5,17c6.9,4.3,23.3,5.3,25.4,9.5c1.2,2.4,0,8.5-8.5,7.4c-4.4-0.6-6.4-3.2-6.4-7.5h-21.2c0,0-2.1,15.9,17,23.3
			c6,2.3,17,2.3,23.3,1.1c10.6-2.1,23.3-11.7,19.1-29.6c-1.3-5.3-5.3-9.6-17-13.9c-11.7-4.2-20.9-3.3-19.1-10.6
			C227.9,180.8,240.7,179.7,239.6,189.2z"/>
		<polygon class="st0" points="197.8,237 187.8,167 168.3,167 152.3,203 136.4,167 117.4,167 106.5,237 127.6,237 132.3,200 
			149.2,237 155.7,237 173.3,199 178.9,237 		"/>
		<polygon class="st0" points="57.3,168 57.3,237 100.3,237 100.3,219 77.3,219 77.3,168 		"/>
		<polygon class="st0" points="0,168 0,237 44.3,237 44.3,219.5 18.3,219.5 18.3,210 41.3,210 41.3,194 18.3,194 18.3,186 44.3,186 
			44.3,168 		"/>
	</g>
</g>
</svg>
