<?xml version="1.0"?>
<svg xmlns="http://www.w3.org/2000/svg"
     version="1.1" width="512" height="512" x="0" y="0" viewBox="0 0 512 512" style="enable-background:new 0 0 512 512"
     xml:space="preserve" class=""><g><g xmlns="http://www.w3.org/2000/svg">
    <path d="m96 150c-8.284 0-15 6.716-15 15v122c0 8.284 6.716 15 15 15s15-6.716 15-15v-122c0-8.284-6.716-15-15-15z" fill="#F5CB5C" style="" class=""/>
    <path d="m316 150c-8.284 0-15 6.716-15 15v122c0 8.284 6.716 15 15 15s15-6.716 15-15v-122c0-8.284-6.716-15-15-15z" fill="#F5CB5C" style="" class=""/>
    <path d="m497 422h-6v-367c0-8.284-6.716-15-15-15h-85v-25c0-8.284-6.716-15-15-15h-120c-8.284 0-15 6.716-15 15v25h-70v-25c0-8.284-6.716-15-15-15h-120c-8.284 0-15 6.716-15 15v407h-6c-8.284 0-15 6.716-15 15v60c0 8.284 6.716 15 15 15h482c8.284 0 15-6.716 15-15v-60c0-8.284-6.716-15-15-15zm-106-352h70v50h-70zm0 80h70v192h-70zm0 222h70v50h-70zm-120-342h90v30h-90zm0 60h90v272h-90zm0 302h90v30h-90zm-100-322h70v50h-70zm0 80h70v192h-70zm0 222h70v50h-70zm-120-342h90v30h-90zm0 60h90v272h-90zm0 302h90v30h-90zm431 90h-452v-30h452z" fill="#F5CB5C" style="" class=""/></g></g></svg>
